<?xml version="1.0" encoding="UTF-8" standalone="no"?>
<svg
   width="7301618"
   height="4170634.2"
   viewBox="0 0 7301618 4170634.2"
   version="1.1"
   xml:space="preserve"
   style="clip-rule:evenodd;fill-rule:evenodd;stroke-linejoin:round;stroke-miterlimit:2"
   id="svg42"
   sodipodi:docname="9 - ECONOMY ANALYSIS.svg"
   inkscape:export-filename="../../../code/web/react/MyProjects/Clone-projects/wizardZ/src/assets/heroImg.svg"
   inkscape:export-xdpi="96"
   inkscape:export-ydpi="96"
   xmlns:inkscape="http://www.inkscape.org/namespaces/inkscape"
   xmlns:sodipodi="http://sodipodi.sourceforge.net/DTD/sodipodi-0.dtd"
   xmlns="http://www.w3.org/2000/svg"
   xmlns:svg="http://www.w3.org/2000/svg"
   xmlns:serif="http://www.serif.com/"><sodipodi:namedview
   id="namedview42"
   pagecolor="#ffffff"
   bordercolor="#000000"
   borderopacity="0.25"
   inkscape:showpageshadow="2"
   inkscape:pageopacity="0.0"
   inkscape:pagecheckerboard="0"
   inkscape:deskcolor="#d1d1d1" />
    <g
   transform="matrix(1.6911172,0,0,1.7201713,-104538.05,-10498.282)"
   id="g36">
        <g
   id="_9---ECONOMY-ANALYSIS"
   serif:id="9 - ECONOMY ANALYSIS">
            <g
   id="CHART-POSTER-2"
   serif:id="CHART POSTER 2">
                <g
   id="g1">
                    <rect
   x="1396.99"
   y="1075.97"
   width="576.31403"
   height="458.69"
   style="fill:#ffafa4"
   id="rect1" />
                    <path
   d="M 1563.44,1286.35 H 1473.2 V 1479 h 90.24 z m 353.99,9.14 h -90.24 V 1479 h 90.24 z m -117.99,-51.4 h -90.25 V 1479 h 90.25 z m -118,-65.78 h -90.25 V 1479 h 90.25 z m 210.6,86.96 h -40.63 v 21.82 h 40.63 z m -355.14,-8.48 h -40.63 v 21.81 h 40.63 z m 237.73,-40.84 H 1734 v 21.82 h 40.63 z m -119.46,-67.29 h -40.62 v 21.82 h 40.62 z"
   style="fill:#fff1e2"
   id="path1" />
                </g>
                <path
   d="m 1733.51,1444.23 177.33,-188.5 c 2.53,-2.69 6.78,-2.82 9.48,-0.29 2.69,2.54 2.82,6.79 0.29,9.48 l -182.85,194.37 c -1.37,1.45 -3.31,2.22 -5.29,2.1 -1.99,-0.12 -3.83,-1.12 -5,-2.73 l -127.06,-173.17 -135.65,180.36 c -2.23,2.96 -6.43,3.56 -9.39,1.33 -2.96,-2.22 -3.56,-6.43 -1.33,-9.39 l 141.07,-187.58 c 1.28,-1.7 3.28,-2.69 5.4,-2.68 2.12,0.01 4.11,1.03 5.37,2.74 z"
   style="fill:#dc5d3c"
   id="path2" />
            </g>
            <g
   id="CURVE"
   transform="matrix(0.762218,0,0,0.749345,259.14,217.392)">
                <path
   d="m 1820.3,573.019 c -0.92,-2.588 -1.42,-5.375 -1.42,-8.278 0,-13.606 11.04,-24.652 24.65,-24.652 13.6,0 24.65,11.046 24.65,24.652 0,13.605 -11.05,24.652 -24.65,24.652 -3.31,0 -6.46,-0.653 -9.35,-1.835 l -246.72,288.487 c 1.58,3.251 2.47,6.901 2.47,10.757 0,13.606 -11.05,24.652 -24.65,24.652 -13.61,0 -24.65,-11.046 -24.65,-24.652 0,-0.673 0.02,-1.34 0.08,-2 l -23.5,-16.308 c -4.18,3.244 -9.42,5.177 -15.11,5.177 -2.76,0 -5.41,-0.453 -7.88,-1.287 l -249.24,328.466 c 0.76,2.38 1.17,4.91 1.17,7.54 0,13.6 -11.04,24.65 -24.65,24.65 -13.61,0 -24.65,-11.05 -24.65,-24.65 0,-1.33 0.1,-2.63 0.3,-3.89 l -153.63,-153.98 c -3.43,1.81 -7.34,2.84 -11.49,2.84 -2.48,0 -4.88,-0.37 -7.14,-1.06 l -267.539,416.5 c 2.183,3.68 3.437,7.97 3.437,12.56 0,13.6 -11.046,24.65 -24.652,24.65 -13.606,0 -24.652,-11.05 -24.652,-24.65 0,-13.61 11.046,-24.66 24.652,-24.66 1.678,0 3.316,0.17 4.901,0.49 l 268.603,-418.16 c -1.45,-3.14 -2.26,-6.64 -2.26,-10.32 0,-13.61 11.05,-24.66 24.65,-24.66 13.61,0 24.66,11.05 24.66,24.66 0,2.05 -0.26,4.05 -0.73,5.96 l 152.47,152.82 c 3.79,-2.38 8.27,-3.75 13.07,-3.75 3.49,0 6.81,0.72 9.82,2.03 l 248.13,-327.006 c -1.29,-2.988 -2.01,-6.284 -2.01,-9.745 0,-13.606 11.05,-24.652 24.66,-24.652 13.6,0 24.65,11.046 24.65,24.652 0,0.575 -0.02,1.146 -0.06,1.712 l 23.69,16.437 c 4.14,-3.148 9.3,-5.018 14.9,-5.018 2.4,0 4.72,0.344 6.91,0.983 z"
   style="fill:#ffafa4"
   id="path3" />
            </g>
            <g
   id="CHART-POSTER-ONE"
   serif:id="CHART POSTER ONE">
                <rect
   x="673.026"
   y="489.67899"
   width="597.12402"
   height="443.44601"
   style="fill:#fff1e2"
   id="rect3" />
                <path
   d="m 792.835,564.618 h -40.63 v 325.315 h 40.63 z m 80.617,-29.037 h -40.629 v 354.18 h 40.629 z m 80.618,74.328 h -40.629 v 279.664 h 40.629 z m 80.62,-46.14 h -40.632 v 325.6 h 40.632 z m 80.62,90.467 h -40.63 v 234.911 h 40.63 z m 80.61,65.66 h -40.63 v 169.009 h 40.63 z"
   style="fill:#ffafa4;fill-opacity:0.64"
   id="path4" />
            </g>
            <g
   id="UP-ARROW"
   serif:id="UP ARROW"
   transform="matrix(0,-0.775243,0.908422,0,148.671,2354.33)">
                <path
   d="m 1236,1329.01 v -89.36 h 136.92 v -61.16 l 176.81,105.84 -176.81,105.84 v -61.16 z"
   style="fill:#e5734e"
   id="path5" />
            </g>
            <g
   id="DOWN-ARROW"
   serif:id="DOWN ARROW"
   transform="matrix(0,0.775243,-0.908422,0,3003.24,-447.894)">
                <path
   d="m 1236,1329.01 v -89.36 h 136.92 v -61.16 l 176.81,105.84 -176.81,105.84 v -61.16 z"
   style="fill:#ffb000"
   id="path6" />
            </g>
            <g
   id="DOLLAR-"
   serif:id="DOLLAR ">
                <g
   transform="translate(7.68225,2.33985)"
   id="g6">
                    <circle
   cx="1586.16"
   cy="1000.86"
   r="135.295"
   style="fill:#ffcd80"
   id="circle6" />
                </g>
                <g
   transform="rotate(-19.644304,1574.242,1021.1733)"
   id="g11">
                    <g
   transform="matrix(1.05464,3.79216e-4,-2.81715e-4,0.783484,-312.137,128.316)"
   id="g7">
                        <path
   d="m 1813.36,1001.02 h -5.01 v -9.36 h 8.74 c 2.07,0 3.74,2.096 3.74,4.68 v 15.83 c 7.65,0.43 14.99,1.97 22.01,4.61 8.97,3.37 17.43,8.54 25.37,15.5 0.9,0.78 1.47,2.02 1.58,3.38 0.1,1.36 -0.27,2.71 -1.03,3.7 l -16.84,21.94 c -1.27,1.65 -3.3,1.91 -4.81,0.61 -7.83,-6.73 -16.59,-10.83 -26.28,-12.31 v 52.75 c 36.09,9.58 53.43,31.23 52.94,63.63 -0.21,17.6 -5.44,32.18 -15.63,43.69 -9.31,10.9 -21.73,17.92 -37.31,20.91 v 27.2 c 0,2.58 -1.67,4.67 -3.74,4.67 h -8.58 v -9.35 h 4.85 v -26.61 c 0,-2.37 1.41,-4.36 3.29,-4.64 15.33,-2.32 27.48,-8.59 36.44,-19.07 8.64,-9.76 13.03,-22.08 13.21,-36.96 0.44,-29.15 -16.53,-47.03 -49.91,-55.04 -1.76,-0.43 -3.03,-2.36 -3.03,-4.6 v -61.72 c 0,-1.29 0.43,-2.52 1.18,-3.41 0.75,-0.88 1.76,-1.34 2.79,-1.25 11.57,0.91 22.02,4.99 31.34,12.22 l 11.6,-15.11 c -6.2,-4.86 -12.72,-8.59 -19.58,-11.16 -7.49,-2.82 -15.36,-4.26 -23.63,-4.35 -2.05,-0.02 -3.7,-2.11 -3.7,-4.68 z m 7.47,191.71 c 5.43,-2.06 9.4,-4.96 11.79,-8.91 1.49,-2.55 2.58,-5.42 3.27,-8.6 l 7.21,2.49 c -0.95,4.3 -2.44,8.18 -4.49,11.7 -3.92,6.47 -10.77,11.27 -20.74,13.92 -1.1,0.29 -2.25,-0.05 -3.13,-0.94 -0.87,-0.89 -1.38,-2.23 -1.38,-3.64 v -33.08 h 7.47 z m -40.88,-132.35 c 1.31,-4.23 3.02,-7.75 5.09,-10.58 0.05,-0.07 0.11,-0.14 0.16,-0.21 4.67,-5.65 10.22,-8.91 16.63,-9.78 1.05,-0.14 2.11,0.29 2.9,1.17 0.79,0.89 1.24,2.16 1.24,3.48 v 27.09 h -7.47 v -21.36 c -2.98,1.18 -5.65,3.19 -8.02,6.03 -1.47,2.04 -2.65,4.59 -3.59,7.62 -0.02,0.08 -0.05,0.16 -0.08,0.24 -1.13,3.14 -1.65,6.95 -1.65,11.38 h -7.47 c 0,-5.87 0.78,-10.89 2.26,-15.08 z"
   style="fill:#fda31f"
   id="path7" />
                    </g>
                    <g
   transform="matrix(1.05464,3.79216e-4,-2.81715e-4,0.783484,-312.137,128.316)"
   id="g8">
                        <path
   d="m 1783.26,1095.07 c -3.68,-5.26 -5.57,-11.78 -5.57,-19.61 h 7.47 c 0,5.37 1.21,9.87 3.74,13.47 l 0.09,0.13 c 1.98,3.04 5.17,5.44 9.51,7.4 v -24.91 h 7.47 v 31.23 c 0,1.45 -0.54,2.82 -1.46,3.71 -0.91,0.88 -2.11,1.19 -3.23,0.82 -8.66,-2.86 -14.61,-7.07 -18.02,-12.24 z"
   style="fill:#fda31f"
   id="path8" />
                    </g>
                    <g
   transform="matrix(1.05464,3.79216e-4,-2.81715e-4,0.783484,-312.137,128.316)"
   id="g9">
                        <path
   d="m 1820.83,1143.28 v 22.39 h -7.47 v -28.07 c 0,-1.37 0.48,-2.67 1.31,-3.56 0.84,-0.89 1.94,-1.28 3.02,-1.06 10.43,2.13 17.39,6.34 21.11,11.97 l 0.08,0.14 c 3.62,5.92 5.45,12.76 5.45,20.54 0,4.35 -0.42,8.38 -1.23,12.08 l -7.21,-2.49 c 0.65,-2.94 0.97,-6.14 0.97,-9.59 0,-5.59 -1.28,-10.51 -3.86,-14.77 -2.34,-3.5 -6.43,-5.92 -12.17,-7.58 z"
   style="fill:#fda31f"
   id="path9" />
                    </g>
                    <g
   transform="matrix(1.05464,3.79216e-4,-2.81715e-4,0.783484,-312.137,128.316)"
   id="g10">
                        <path
   d="m 1798.5,1137.85 c -34.7,-9.67 -51.18,-30.75 -50.39,-61.92 0.3,-18.79 5.11,-33.48 14.2,-44.18 8.32,-9.79 20.35,-16.26 36.19,-19.14 v -16.27 c 0,-2.584 1.67,-4.68 3.73,-4.68 h 6.12 v 9.36 h -2.38 v 15.7 c 0,2.38 -1.42,4.38 -3.31,4.65 -15.55,2.27 -27.33,7.89 -35.24,17.2 -7.7,9.07 -11.58,21.62 -11.84,37.61 -0.71,27.92 15.43,45.22 47.39,53.3 1.74,0.44 3,2.36 3,4.58 v 64.69 c 0,1.32 -0.45,2.57 -1.22,3.46 -0.78,0.89 -1.82,1.32 -2.87,1.2 -9.35,-1.1 -17.27,-3.72 -23.75,-7.79 -5.7,-3.2 -10.8,-7.17 -15.31,-11.92 l -14.31,15.1 c 6.91,6.14 14.57,11.32 22.95,15.55 9.78,4.8 20.05,7.28 30.82,7.46 2.05,0.04 3.69,2.12 3.69,4.68 v 26.61 h 2.54 v 9.35 h -6.28 c -2.06,0 -3.73,-2.09 -3.73,-4.67 v -26.76 c -10.36,-0.64 -20.28,-3.3 -29.79,-7.97 -10.63,-5.36 -20.12,-12.14 -28.51,-20.33 -0.88,-0.86 -1.41,-2.19 -1.43,-3.6 -0.03,-1.41 0.46,-2.76 1.32,-3.67 l 20.39,-21.51 c 1.44,-1.53 3.58,-1.46 4.96,0.17 4.51,5.31 9.79,9.64 15.81,13.01 l 0.16,0.09 c 4.8,3.03 10.5,5.11 17.09,6.28 z"
   style="fill:#fda31f"
   id="path10" />
                    </g>
                </g>
            </g>
            <g
   id="MAGNIFYING-GLASS"
   serif:id="MAGNIFYING GLASS">
                <g
   id="g13">
                    <path
   d="m 1622.38,1155.44 c -10.05,2.07 -20.47,3.16 -31.13,3.16 -8.84,0 -16,-7.17 -16,-16 0,-8.83 7.16,-16 16,-16 67.19,0 121.74,-54.55 121.74,-121.74 0,-67.192 -54.55,-121.742 -121.74,-121.742 -8.84,0 -16,-7.169 -16,-16 0,-8.83 7.16,-16 16,-16 84.85,0 153.74,68.889 153.74,153.742 0,62.89 -37.85,117.01 -91.99,140.81 l 100.3,236.6 c 3.45,8.13 -0.35,17.53 -8.48,20.97 -8.13,3.45 -17.53,-0.35 -20.98,-8.48 z"
   style="fill:#dc5d3c"
   id="path11" />
                    <g
   transform="translate(-20.3138,-7.3432)"
   id="g12">
                        <path
   d="m 1611.56,1133.94 c -67.19,0 -121.74,-54.55 -121.74,-121.74 0,-67.188 54.55,-121.738 121.74,-121.738 8.83,0 16,-7.17 16,-16 0,-8.831 -7.17,-16 -16,-16 -84.85,0 -153.74,68.888 -153.74,153.738 0,84.85 68.89,153.74 153.74,153.74 8.83,0 16,-7.17 16,-16 0,-8.83 -7.17,-16 -16,-16 z"
   style="fill:#dc5d3c"
   id="path12" />
                    </g>
                </g>
            </g>
            <g
   id="BOY">
                <path
   d="m 1806.68,1207.57 c 0,0 -8.61,-32.34 -5.76,-73.57 4.02,-57.99 41.13,-108.45 95.29,-129.57 54.15,-21.115 115.63,-9.097 157.84,30.86 9.75,9.27 18.64,20.16 26.12,32.97 36.76,63 48.68,132.45 17.72,201.07 0,0 19.95,131.03 -8.79,225.48 -14.5,47.44 -55.64,81.84 -104.89,87.72 -1.66,0.22 -3.33,0.41 -5.02,0.61 -44.98,5.37 -89.1,-15.24 -113.86,-53.17 -48.21,-73.86 -122.36,-187.46 -122.36,-187.46 0,0 -41.96,3.65 -58.17,5.06 -5.8,0.52 -10.99,-3.57 -11.84,-9.33 -0.47,-3.45 0.61,-7.25 5.54,-10.47 0,0 -5.21,-0.04 -9.29,-1.03 -6.44,-1.55 -9.02,-7.06 -9.3,-12.96 -0.26,-5.55 1.38,-11.96 8.93,-15.72 0,0 0,0 0,0 -9.51,1.79 -18.73,-4.28 -20.83,-13.72 -0.09,-0.38 -0.17,-0.74 -0.24,-1.08 -0.77,-3.43 -0.28,-7.02 1.37,-10.12 1.56,-2.95 4.25,-6.18 8.85,-8.13 0,0 -4.48,-1.39 -9.32,-2.89 -6.99,-2.17 -11.76,-8.63 -11.76,-15.95 0,0 0,-0.01 0,-0.01 0,-6.49 3.92,-12.35 9.93,-14.83 13.05,-5.41 34.37,-14.23 34.37,-14.23 0,0 -27.46,-35.02 -16.04,-45.31 2.03,-1.83 6.56,-2.89 19.88,8.45 5.03,4.28 24.56,9.75 49.27,6.36 0,0 32.33,-0.2 72.36,20.97 z m 29.72,-376.836 c 42.01,0 76.12,34.109 76.12,76.123 0,42.013 -34.11,76.123 -76.12,76.123 -42.02,0 -76.13,-34.11 -76.13,-76.123 0,-42.014 34.11,-76.123 76.13,-76.123 z"
   style="fill:#a8cfcc"
   id="path13" />
                <path
   d="m 1740.39,1342.74 16.68,-1.88 c 2.19,-0.25 4.17,1.33 4.42,3.53 0.25,2.19 -1.33,4.17 -3.53,4.42 l -10.14,1.14 -4.85,-7.44 z m -78.44,-21.34 48.19,-4.45 c 2.2,-0.21 4.15,1.41 4.35,3.61 0.21,2.2 -1.41,4.15 -3.61,4.35 l -32.61,3.01 c 0.07,-0.05 0.15,-0.1 0.23,-0.15 0,0 -5.21,-0.04 -9.29,-1.03 -3.45,-0.83 -5.79,-2.79 -7.26,-5.34 z m -8.64,-27.82 c 0.36,-0.21 0.77,-0.37 1.2,-0.47 l 44.64,-9.62 c 2.15,-0.47 4.28,0.91 4.75,3.07 0.46,2.15 -0.91,4.28 -3.07,4.75 l -32.49,7.01 c 0.16,-0.09 0.33,-0.18 0.5,-0.26 0,0 0,0 0,0 -5.8,1.09 -11.49,-0.74 -15.53,-4.48 z m -8.07,-32.96 47.62,-14.67 c 2.11,-0.65 4.35,0.53 5,2.64 0.65,2.11 -0.54,4.35 -2.65,5 l -37.61,11.59 c 0.13,-0.06 0.26,-0.12 0.39,-0.17 0,0 -4.48,-1.39 -9.32,-2.89 -1.21,-0.38 -2.36,-0.88 -3.43,-1.5 z m 31.14,-50.19 16.66,-6.89 c 2.04,-0.85 4.38,0.12 5.23,2.16 0.84,2.05 -0.13,4.39 -2.17,5.23 l -14.9,6.16 c -0.13,-0.17 -2.15,-2.76 -4.82,-6.66 z"
   style="fill:#82b5b2"
   id="path14" />
                <path
   d="m 1806.31,1206.06 c -1.63,-6.82 -7.88,-36.05 -5.39,-72.06 4.02,-57.99 41.13,-108.45 95.29,-129.57 54.15,-21.115 115.63,-9.097 157.84,30.86 9.75,9.27 18.64,20.16 26.12,32.97 36.76,63 48.68,132.45 17.72,201.07 0,0 19.95,131.03 -8.79,225.48 -14.5,47.44 -55.64,81.84 -104.89,87.72 -1.66,0.22 -3.33,0.41 -5.02,0.61 -44.98,5.37 -89.1,-15.24 -113.86,-53.17 l -33.01,-50.57 112.23,-131.16 c -58.67,-91.33 -122.57,-132.89 -138.24,-142.18 z"
   style="fill:url(#_Linear1)"
   id="path15" />
                <path
   d="m 1944.12,1347.58 c 0.2,0.19 0.39,0.42 0.55,0.66 l 72.49,109.42 c 1.22,1.85 0.72,4.33 -1.12,5.55 -1.84,1.22 -4.32,0.71 -5.54,-1.13 l -71.29,-107.6 5.34,-6.24 z m 154.47,-73.19 0.18,1.42 -0.22,0.46 c 0,0 -16.01,-89.13 -38.98,-157.27 -0.55,-1.41 0.09,-3 1.45,-3.64 1.36,-0.65 2.99,-0.13 3.74,1.18 12.23,23.75 29,59.3 47.59,107.14 -0.27,1.42 -0.55,2.84 -0.85,4.25 l -0.01,0.05 -0.14,0.66 -0.01,0.06 -0.15,0.67 -0.01,0.04 c -0.3,1.41 -0.63,2.82 -0.97,4.22 l -0.01,0.05 -0.16,0.64 -0.02,0.1 -0.15,0.62 -0.04,0.12 -0.15,0.61 -0.03,0.11 -0.16,0.63 -0.01,0.04 c -0.24,0.92 -0.49,1.84 -0.74,2.77 l -0.02,0.06 -0.16,0.59 -0.05,0.17 -0.15,0.54 -0.06,0.21 -0.15,0.53 -0.06,0.22 -0.15,0.52 -0.06,0.22 -0.16,0.53 -0.05,0.18 -0.17,0.56 c -0.07,0.24 -0.14,0.48 -0.22,0.72 l -0.19,0.62 -0.03,0.1 -0.15,0.5 -0.08,0.26 -0.15,0.46 -0.09,0.3 -0.14,0.44 -0.1,0.32 -0.14,0.43 -0.11,0.33 -0.14,0.43 -0.11,0.33 -0.14,0.42 -0.11,0.34 -0.14,0.42 -0.14,0.4 -0.1,0.32 -0.13,0.36 -0.13,0.39 -0.13,0.38 -0.14,0.39 -0.13,0.37 -0.14,0.39 -0.13,0.37 -0.14,0.4 -0.13,0.36 -0.15,0.41 -0.13,0.35 -0.15,0.43 -0.12,0.33 -0.19,0.5 -0.1,0.26 -0.28,0.75 -0.1,0.25 -0.19,0.51 -0.12,0.31 -0.17,0.45 -0.13,0.33 -0.17,0.44 -0.13,0.33 -0.17,0.44 -0.13,0.33 -0.18,0.45 -0.13,0.31 -0.2,0.49 -0.11,0.27 -0.26,0.63 -0.05,0.13 -0.32,0.76 -0.09,0.23 -0.23,0.53 -0.12,0.3 -0.2,0.47 -0.13,0.31 -0.2,0.45 -0.13,0.32 -0.2,0.46 -0.14,0.31 -0.2,0.47 -0.13,0.29 -0.23,0.52 -0.11,0.24 -0.34,0.77 c 0,0 0.06,0.4 0.06,0.4 l 0.01,0.13 0.06,0.37 0.02,0.18 0.08,0.53 0.03,0.2 0.09,0.71 0.03,0.21 0.13,0.9 0.02,0.18 0.15,1.14 z m -254.39,-41.1 c 0,0 -3.81,-29.45 -8.94,-116 -0.12,-1.93 1.21,-2.53 1.94,-2.69 1.3,-0.29 2.29,0.55 2.41,1.29 l 21.45,132.1 c -5.93,-5.45 -11.57,-10.34 -16.86,-14.7 z"
   style="fill:#28625e"
   id="path16" />
                <path
   d="m 1777.1,859.145 c 13.96,-17.321 35.34,-28.411 59.3,-28.411 42.01,0 76.12,34.109 76.12,76.123 0,23.771 -10.92,45.012 -28.01,58.974 l -26.57,-26.391 c 2.83,-0.202 5.75,-0.952 8.58,-2.298 10.01,-4.766 12.58,-17.297 8.73,-25.386 -3.86,-8.088 -15.11,-10.786 -25.11,-6.02 -6.49,3.092 -8.46,10.665 -9.68,16.34 z"
   id="path17" />
            </g>
            <g
   id="WORLD">
                <g
   transform="translate(-479.57,-66.72)"
   id="g17">
                    <circle
   cx="1586.16"
   cy="1000.86"
   r="135.295"
   style="fill:#a8cfcc"
   id="circle17" />
                </g>
                <path
   d="m 974.727,903.753 c 0.979,-0.438 2.174,-0.692 3.619,-0.437 2.848,0.502 4.872,2.941 4.955,5.723 0.947,1.68 3.503,6.071 6.551,10.21 7.197,9.777 19.338,23.821 36.148,38.154 7.7,-32.944 22.44,-60.414 38.74,-82.439 -24.07,-18.572 -37.31,-35.679 -40,-38.946 -2.11,-2.556 -1.74,-6.34 0.81,-8.447 2.56,-2.106 6.34,-1.742 8.45,0.813 2.57,3.115 15.18,19.401 38.12,37.079 31.26,-38.336 65.12,-57.421 65.12,-57.421 2.88,-1.626 6.54,-0.605 8.17,2.28 1.63,2.884 0.61,6.547 -2.28,8.173 0,0 -31.85,17.958 -61.38,54.021 22.87,15.901 53.97,31.68 93.51,39.007 4.25,-28.846 2.7,-55.646 -0.29,-75.51 -0.49,-3.275 1.77,-6.333 5.04,-6.827 3.28,-0.493 6.34,1.765 6.83,5.04 3.14,20.862 4.71,48.94 0.25,79.195 15.39,2.092 31.97,2.889 49.74,1.954 1.47,-0.077 2.83,0.378 3.92,1.196 0.38,2.91 0.66,5.848 0.86,8.811 -1.03,1.141 -2.49,1.89 -4.15,1.976 -18.72,0.985 -36.19,0.136 -52.42,-2.087 -5.81,29.267 -17.61,59.906 -39.27,87.569 21.78,3.16 45.6,3.35 71.38,-0.75 -3.36,4.76 -7.03,9.3 -10.96,13.58 -25.03,2.74 -48.2,1.65 -69.45,-2.12 -14.53,16.02 -32.76,30.77 -55.52,43.32 -0.08,0.05 -0.17,0.09 -0.26,0.13 -2.46,-0.47 -4.89,-1.01 -7.3,-1.61 -0.22,-0.27 -0.42,-0.56 -0.59,-0.88 -1.6,-2.9 -0.54,-6.55 2.36,-8.15 18.99,-10.48 34.64,-22.58 47.48,-35.7 -35.62,-8.56 -65.31,-24.494 -88.68,-41.576 -2.62,19.431 -2.61,40.636 1.07,63.616 0.32,2.02 -0.41,3.97 -1.79,5.29 -3.7,-2.38 -7.27,-4.93 -10.71,-7.65 -3.6,-25.29 -3,-48.511 0.54,-69.644 -28.364,-23.019 -45.405,-46.279 -50.194,-55.043 -0.169,-0.309 -0.325,-0.607 -0.47,-0.895 0.535,-3.721 1.221,-7.393 2.051,-11.005 z m 99.623,-21.725 c -16.35,22.128 -31.05,50.061 -37.9,83.826 24.26,18.599 56.37,36.376 95.75,44.586 22.88,-27.182 35.11,-57.817 41,-87.07 -41.88,-7.72 -74.76,-24.495 -98.85,-41.342 z m -96.055,33.114 c -0.28,0.048 -0.565,0.075 -0.853,0.082 -0.288,0.006 -0.58,-0.008 -0.874,-0.045 0.626,0.081 1.2,0.06 1.727,-0.037 z"
   style="fill:#82b5b2"
   id="path18" />
            </g>
            <g
   id="GIRL">
                <g
   id="g26">
                    <path
   d="m 644.761,1189.69 c 0,0 -198.831,-157.32 -60.719,-343.655 14.7,-19.831 103.9,-135.423 230.656,-213.771 4.949,-3.069 11.32,-2.559 15.72,1.257 2.805,2.494 4.629,6.302 2.82,12.149 0,0 19.617,-4.276 18.265,14.57 0,0 22.971,-6.16 23.769,17.503 0,0 37.977,-46.536 54.522,-66.811 4.337,-5.313 11.917,-6.636 17.796,-3.104 10e-4,10e-4 10e-4,10e-4 0.002,10e-4 2.668,1.603 4.589,4.2 5.34,7.22 0.751,3.02 0.27,6.215 -1.337,8.88 -70.596,116.92 -145.64,224.189 -220.909,330.971 0,0 62.089,62.81 94.084,85.42 12.992,9.17 142.819,90.29 161.593,134.71 0,0 1.583,-10.18 3.387,-21.77 3.124,-20.1 17.94,-36.38 37.64,-41.4 13.36,-3.4 25.76,-6.56 25.76,-6.56 0,0 22.16,-3.78 41.03,-3.63 12.36,0.09 23.28,8.04 27.18,19.76 0,0 0,0 0,0 1.79,5.41 1.04,11.34 -2.06,16.12 -1.75,2.71 -3.3,5.09 -3.3,5.09 0,0 4.45,1.51 8.58,2.91 4.4,1.49 7.95,4.78 9.78,9.05 0,0 0,0 0,0 3.56,8.32 2.03,17.95 -3.94,24.76 -1.86,2.13 -3.24,3.7 -3.24,3.7 h 1.35 c 7.04,0 13.37,4.28 16,10.82 0,0 0,0 0,0 3.61,8.98 0.69,19.26 -7.09,25.01 -1.93,1.42 -3.27,2.42 -3.27,2.42 2.44,-0.83 4.72,0.85 6.32,4.7 3.17,7.61 0.26,16.4 -6.64,20.91 -10.76,7.03 -24.96,16.31 -24.96,16.31 -3.19,65.63 -11.12,136.42 -48.37,220.79 -11.24,25.37 -33.35,44.28 -60.15,51.45 -0.02,0.02 -0.04,0.02 -0.06,0.03 -56.1,15 -114.892,-12.31 -139.609,-64.85 -11.866,-25.25 -24.539,-56.37 -35.931,-93.02 0,0 -47.16,6.16 -94.084,-17.6 -56.371,-28.54 -112.401,-93.24 -85.925,-170.34 z"
   style="fill:url(#_Linear2)"
   id="path19" />
                    <path
   d="m 559.973,1082.52 c 5.922,-18.18 26.592,-59.01 92.231,-55.17 0,0 23.281,-67.884 96.893,-54.226 20.88,20.36 54.726,52.396 75.673,67.196 12.992,9.17 142.819,90.29 161.593,134.71 l 0.217,-1.39 c 12.116,35.56 34.12,111.88 23.06,194.47 0,0 -43.586,29.15 -85.979,-7.47 0,0 -40.131,53.24 -98.17,19.29 -0.242,-0.77 -0.482,-1.53 -0.721,-2.3 0,0 -47.16,6.16 -94.084,-17.6 -56.371,-28.54 -112.401,-93.24 -85.925,-170.34 0,0 -52.489,-41.53 -84.788,-107.17 z m 275.944,-59.9 17.08,10.63 c -6.16,-2.81 -11.896,-6.39 -17.08,-10.63 z"
   style="fill:#fd9500"
   id="path20" />
                    <path
   d="m 1003.67,1348.9 -9.69,109.44 c -0.195,2.2 1.433,4.15 3.632,4.34 2.199,0.2 4.138,-1.43 4.338,-3.63 l 9.68,-109.44 c 0.2,-2.2 -1.43,-4.15 -3.63,-4.34 -2.2,-0.2 -4.14,1.43 -4.33,3.63 z"
   style="fill:#fd9500"
   id="path21" />
                    <path
   d="m 795.991,1377.79 c -3.409,-40.04 5.695,-72.6 11.782,-89.2 0.488,-1.16 1.722,-1.8 2.95,-1.55 1.227,0.25 2.109,1.33 2.107,2.58 1.179,32.55 9.748,76.4 12.51,89.83 -0.191,-0.61 -0.381,-1.21 -0.57,-1.82 0,0 -11.495,1.5 -28.779,0.16 z M 617.045,1163.47 c 14.475,-17.96 28.785,-31.55 42.107,-41.84 20.515,-15.85 38.686,-23.87 51.498,-27.97 1.482,-0.33 2.991,0.45 3.585,1.84 0.594,1.4 0.104,3.02 -1.164,3.86 -38.761,26.52 -60.867,72.45 -68.347,90.3 -0.733,-0.59 -12.307,-9.88 -27.679,-26.19 z"
   style="fill:#e15d33"
   id="path22" />
                    <path
   d="m 1134.25,1221.28 c 2.42,-0.76 4.66,0.93 6.24,4.73 0.09,0.21 0.17,0.42 0.25,0.63 -7.39,4.62 -23.46,13.74 -38.14,15.77 -2.19,0.3 -4.21,-1.23 -4.51,-3.41 -0.31,-2.19 1.22,-4.21 3.41,-4.51 12.16,-1.68 25.32,-8.71 32.75,-13.21 z m -7.06,-38.22 h 1.34 c 3.26,0 6.37,0.92 9.03,2.56 -4.41,3.22 -21.98,15.46 -40.39,19.84 -2.15,0.51 -4.3,-0.82 -4.82,-2.97 -0.51,-2.14 0.82,-4.3 2.97,-4.81 12.57,-3 24.71,-9.96 31.87,-14.62 z m -11.14,-40.4 7.96,2.7 c -7.33,9.47 -21.08,23.55 -40.23,27.39 -2.16,0.44 -4.27,-0.97 -4.71,-3.13 -0.43,-2.17 0.97,-4.28 3.14,-4.71 15.57,-3.13 27.07,-13.97 33.84,-22.25 z"
   style="fill:#fd9500"
   id="path23" />
                    <path
   d="m 1062.53,1116.29 c 0,0 -13.65,3.01 -28.04,0.96 -2.19,-0.31 -4.21,1.22 -4.53,3.4 -0.31,2.19 1.22,4.21 3.4,4.52 15.85,2.26 30.89,-1.06 30.89,-1.06 2.15,-0.48 3.52,-2.62 3.04,-4.77 -0.47,-2.16 -2.61,-3.52 -4.76,-3.05 z"
   style="fill:#fd9500"
   id="path24" />
                    <path
   d="m 873.062,667.876 c 1.253,2.506 2.07,5.731 2.21,9.867 l 6.037,-7.398 c -0.117,0.213 -0.257,0.418 -0.417,0.613 l -14.967,18.124 c -1.406,1.702 -3.929,1.943 -5.631,0.537 -1.702,-1.406 -1.943,-3.929 -0.537,-5.631 z m -23.584,-17.494 c 1.489,2.232 2.343,5.391 2.026,9.842 l -9.279,10.624 c -1.452,1.663 -3.981,1.834 -5.644,0.382 -1.663,-1.452 -1.834,-3.981 -0.382,-5.644 z m -17.211,-14.776 c 1.632,2.401 2.336,5.652 0.971,10.064 h 10e-4 c -5.008,4.721 -10.784,10.199 -10.784,10.199 -1.602,1.519 -4.136,1.452 -5.655,-0.15 -1.519,-1.602 -1.452,-4.136 0.15,-5.655 0,0 10.228,-9.698 15.317,-14.458 z"
   style="fill:#fd9500"
   id="path25" />
                    <path
   d="m 730.686,954.9 c 0,0 -26.398,-26.066 -42.033,-41.505 -1.074,-1.061 -1.237,-2.718 -0.39,-3.961 0.846,-1.243 2.468,-1.726 3.874,-1.154 20.634,8.397 55.641,22.642 55.641,22.642 z"
   style="fill:#fd9500"
   id="path26" />
                </g>
                <g
   transform="rotate(30.740781,1474.1497,87.587424)"
   id="g30">
                    <g
   id="g29">
                        <g
   transform="rotate(-30.740781,1474.1487,87.5842)"
   id="g27">
                            <path
   d="m 1049.64,1125.68 6.07,-44.52 c -9.7,-3.36 -19.2,-7.74 -28.37,-13.2 -7.59,-4.51 -10.09,-14.34 -5.58,-21.93 4.52,-7.59 14.35,-10.08 21.93,-5.57 57.75,34.35 132.52,15.34 166.87,-42.406 34.34,-57.749 15.34,-132.517 -42.41,-166.862 -7.59,-4.514 -10.09,-14.341 -5.57,-21.93 4.51,-7.59 14.34,-10.088 21.93,-5.574 72.93,43.373 96.92,137.794 53.55,210.722 -32.15,54.06 -92.34,81.23 -151.04,74.01 l -3.95,28.96 c -7.24,3.43 -19.24,7.87 -33.43,8.3 z"
   style="fill:#dc5d3c"
   id="path27" />
                        </g>
                        <g
   transform="translate(-20.3138,-7.3432)"
   id="g28">
                            <path
   d="m 1611.56,1133.94 c -67.19,0 -121.74,-54.55 -121.74,-121.74 0,-67.188 54.55,-121.738 121.74,-121.738 8.83,0 16,-7.17 16,-16 0,-8.831 -7.17,-16 -16,-16 -84.85,0 -153.74,68.888 -153.74,153.738 0,84.85 68.89,153.74 153.74,153.74 8.83,0 16,-7.17 16,-16 0,-8.83 -7.17,-16 -16,-16 z"
   style="fill:#dc5d3c"
   id="path28" />
                        </g>
                    </g>
                </g>
                <g
   id="g32">
                    <circle
   cx="885.59698"
   cy="961.65601"
   r="78.658997"
   style="fill:#ffbb22"
   id="circle30" />
                    <path
   d="m 858.246,992.726 c -14.189,2.447 -29.289,2.794 -44.951,-0.061 -4.09,-9.515 -6.357,-19.999 -6.357,-31.009 0,-43.413 35.246,-78.659 78.659,-78.659 34.605,0 64.021,22.394 74.531,53.463 -3.296,14.791 -28.047,44.333 -78.891,50.355 1.645,-4.207 1.779,-9.319 0.009,-14.29 -3.474,-9.756 -12.974,-15.299 -21.201,-12.37 -8.227,2.929 -12.086,13.229 -8.612,22.985 1.425,4.002 3.864,7.296 6.813,9.586 z"
   id="path30" />
                    <g
   transform="matrix(0.715949,0,0,0.715949,270.378,125.494)"
   id="g31">
                        <circle
   cx="897.18402"
   cy="975.40002"
   r="74.928001"
   id="circle31" />
                    </g>
                </g>
            </g>
            <g
   id="PIE-CHART"
   serif:id="PIE CHART">
                <g
   transform="translate(-10.5812,7.59404)"
   id="g33">
                    <path
   d="m 1492.3,645.934 c -28.95,54.853 -86.58,92.261 -152.88,92.261 -95.38,0 -172.83,-77.444 -172.83,-172.834 0,-58.047 28.68,-109.448 72.66,-140.756 l 100.17,140.756 z"
   style="fill:#e5734e"
   id="path32" />
                </g>
                <path
   d="M 1328.84,572.955 1228.67,432.199 c 25.08,-17.931 55.17,-29.283 87.75,-31.583 z"
   style="fill:#ffbb22"
   id="path33" />
                <path
   d="m 1320.92,400.322 7.92,-0.2 c 48.59,0 92.53,20.095 123.92,52.456 l -123.92,120.377 -12.42,-172.339 2.34,-0.179 z"
   style="fill:#a8cfcc"
   id="path34" />
                <g
   transform="translate(46.71,-10.1252)"
   id="g35">
                    <path
   d="m 1452.76,452.578 c 30.28,31.1 48.92,73.579 48.92,120.377 0,29.094 -7.21,56.519 -19.96,80.573 l -152.88,-80.573 z"
   style="fill:#ffcbc4"
   id="path35" />
                </g>
            </g>
        </g>
    </g>
    <defs
   id="defs42"><linearGradient
     id="_Linear1"
     x1="0"
     y1="0"
     x2="1"
     y2="0"
     gradientUnits="userSpaceOnUse"
     gradientTransform="matrix(432.261,333.876,-339.612,424.961,1800.34,1289.08)"><stop
       offset="0"
       style="stop-color:rgb(130,181,178);stop-opacity:1"
       id="stop36" /><stop
       offset="0.57"
       style="stop-color:rgb(154,193,187);stop-opacity:1"
       id="stop37" /><stop
       offset="0.8"
       style="stop-color:rgb(206,217,207);stop-opacity:1"
       id="stop38" /><stop
       offset="1"
       style="stop-color:rgb(255,241,226);stop-opacity:1"
       id="stop39" /></linearGradient><linearGradient
     id="_Linear2"
     x1="0"
     y1="0"
     x2="1"
     y2="0"
     gradientUnits="userSpaceOnUse"
     gradientTransform="matrix(-388.509,97.5106,-99.1858,-381.947,852.592,1342.73)"><stop
       offset="0"
       style="stop-color:rgb(255,187,34);stop-opacity:1"
       id="stop40" /><stop
       offset="0.47"
       style="stop-color:rgb(254,176,25);stop-opacity:1"
       id="stop41" /><stop
       offset="1"
       style="stop-color:rgb(253,149,0);stop-opacity:1"
       id="stop42" /></linearGradient></defs>
</svg>
